<?xml version="1.0" encoding="iso-8859-1"?>
<!-- Generator: Adobe Illustrator 19.0.0, SVG Export Plug-In . SVG Version: 6.00 Build 0)  -->
<svg version="1.1" id="Layer_1" xmlns="http://www.w3.org/2000/svg" xmlns:xlink="http://www.w3.org/1999/xlink" x="0px" y="0px"
	 viewBox="0 0 512 512" style="enable-background:new 0 0 512 512;" xml:space="preserve">
<polygon style="fill:#9AD14B;" points="450.164,73.997 450.164,512 135.833,512 135.833,475.002 413.166,73.997 "/>
<polygon style="fill:#F95428;" points="413.166,73.997 413.166,475.002 135.833,475.002 98.834,475.002 98.834,438.003 
	376.167,36.998 413.166,36.998 "/>
<polygon style="fill:#F7B239;" points="376.167,36.998 376.167,438.003 98.834,438.003 61.836,438.003 61.836,0 376.167,0 "/>
<g>
	<rect x="156.47" y="89.546" style="fill:#666666;" width="125.05" height="19.324"/>
	<rect x="112.721" y="137.456" style="fill:#666666;" width="212.548" height="19.324"/>
	<rect x="112.721" y="185.378" style="fill:#666666;" width="212.548" height="19.324"/>
	<rect x="112.721" y="233.301" style="fill:#666666;" width="212.548" height="19.324"/>
	<rect x="112.721" y="281.224" style="fill:#666666;" width="212.548" height="19.324"/>
	<rect x="112.721" y="329.147" style="fill:#666666;" width="212.548" height="19.324"/>
</g>
<g>
</g>
<g>
</g>
<g>
</g>
<g>
</g>
<g>
</g>
<g>
</g>
<g>
</g>
<g>
</g>
<g>
</g>
<g>
</g>
<g>
</g>
<g>
</g>
<g>
</g>
<g>
</g>
<g>
</g>
</svg>
